<?xml version="1.0" encoding="UTF-8" standalone="no"?>
<svg xmlns="http://www.w3.org/2000/svg" version="1.1" width="1229.2656" height="250.62695" viewBox="0 0 1229.2656 250.62695">
    <g id="red" style="fill: #e62b1e">
        <path id="path00" d="m 10,10.271484 v 36.16211 H 49.539062 V 151.35938 H 92.980469 V 46.433594 h 39.525391 v -36.16211 z" />
        <path id="path01" d="M 139.25781,10.271484 V 151.35938 H 258.20117 V 115.20117 H 182.72656 V 97.617188 h 75.45508 V 64.013672 H 182.72656 V 46.433594 h 75.45508 v -36.16211 z" />
        <path id="path02" d="M 265.49609,10.271484 V 151.36133 h 62.84571 c 49.20533,0 72.1289,-27.46396 72.1289,-70.751955 0,-35.557332 -16.61796,-70.337891 -63.64062,-70.337891 z m 43.4668,36.160157 h 13.83594 c 31.42133,0 34.20117,24.698219 34.20117,33.574218 0,13.253333 -3.95844,35.195311 -31.03711,35.195311 h -17 z" />
        <path id="path03" d="M 406.01172,10 435.125,52.529297 404.89062,96.990234 h 31.84766 l 12.93164,-21.988281 13.25977,21.988281 h 31.85742 L 464.55273,52.529297 493.6582,10 H 461.80664 L 449.66992,31.023438 437.87109,10 Z" />
        <path id="path11" d="m 14.050781,198.3125 10.089844,14.54102 -11.039063,16.14062 h 9.435547 l 6.410157,-9.67187 6.410156,9.67187 h 9.613281 L 33.634766,212.67383 43.724609,198.3125 H 34.40625 l -5.341797,8.01367 -5.398437,-8.01367 z" />
    </g>
    <g id="black" style="fill: #000000">
        <path id="path04" d="m 509.32617,10.050781 36.875,141.066409 h 20.06836 L 599.01562,34.154297 631.57031,151.11719 h 20.07031 L 688.70703,10.050781 H 667.77344 L 641.17188,124.80664 609.29102,10.050781 H 588.54883 L 556.66797,124.80664 530.06836,10.050781 Z" />
        <path id="path05" d="m 727.84382,45.773438 c -10.43512,0 -19.62023,2.496741 -27.55859,7.490234 -7.87435,4.929466 -11.97287,13.732417 -12.29297,26.408203 h 16.13281 c 0.64019,-5.313591 2.01628,-9.315106 4.12891,-12.003906 3.77713,-4.865449 10.18034,-7.296875 19.20703,-7.296875 7.81033,0 13.79579,1.344403 17.95703,4.033203 4.22526,2.624782 6.33789,6.881724 6.33789,12.771484 0,2.880854 -0.38411,5.088538 -1.15234,6.625 -1.3444,2.816836 -4.00152,4.481981 -7.97071,4.994141 l -27.56054,3.457031 c -9.66689,1.216365 -17.47592,4.449655 -23.42969,9.699217 -5.95378,5.24957 -8.93164,12.6428 -8.93164,22.18164 0,8.7066 3.00955,15.97309 9.02734,21.79883 6.08182,5.76172 13.89085,8.64258 23.42969,8.64258 7.93836,0 15.20485,-1.69683 21.79883,-5.08984 6.59396,-3.39301 11.65278,-7.39258 15.17383,-12.00196 0.57617,4.09722 1.56814,7.26519 2.97656,9.50586 2.6888,4.22525 7.00911,6.33789 12.96289,6.33789 2.43272,0 4.35329,-0.095 5.76172,-0.28711 1.40842,-0.19206 3.45768,-0.67318 6.14648,-1.4414 v -12.77149 c -1.08832,0.19206 -2.11197,0.35243 -3.07226,0.48047 -0.96029,0.064 -1.82552,0.0957 -2.59375,0.0957 -2.36871,0 -3.93685,-0.54448 -4.70508,-1.63281 -0.70421,-1.08832 -1.05664,-2.52778 -1.05664,-4.32031 V 74.199219 c 0,-9.730907 -3.74414,-16.90235 -11.23438,-21.511719 -7.55425,-4.609378 -17.38281,-6.914062 -29.48242,-6.914062 z m 23.43164,53.007812 v 13.92578 c 0,10.62717 -4.80143,18.27582 -14.4043,22.94922 -5.6977,2.81684 -11.5881,4.22656 -17.66992,4.22656 -4.99348,0 -9.31379,-1.4414 -12.96289,-4.32226 -3.64908,-2.88087 -5.47461,-6.81707 -5.47461,-11.81055 0,-6.59397 2.65712,-11.3954 7.97071,-14.4043 3.13693,-1.79253 7.84331,-3.10525 14.11718,-3.9375 l 10.4668,-1.34375 c 3.20096,-0.38411 6.46594,-1.02561 9.79492,-1.92187 3.329,-0.89627 6.04948,-2.01693 8.16211,-3.36133 z" />
        <path id="path06" d="m 837.4892,45.966797 c -6.85004,0 -12.89887,2.496741 -18.14844,7.490234 -5.24956,4.929467 -8.54622,9.123047 -9.89062,12.580078 V 48.271484 H 793.02826 V 151.11719 h 17.28516 V 91.964844 c 0,-7.298178 2.33637,-13.733073 7.00977,-19.302735 4.67339,-5.633679 11.36371,-8.451171 20.07031,-8.451171 1.0243,0 1.95291,0.03366 2.78515,0.09766 0.89627,0.06402 1.85655,0.190759 2.88086,0.382812 V 46.44727 c -1.85656,-0.192071 -3.16926,-0.320766 -3.9375,-0.384766 -0.76822,-0.064 -1.31271,-0.0957 -1.63281,-0.0957 z" />
        <path id="path07" d="M 853.72077,48.271484 883.3946,151.11719 h 17.95703 l 20.26172,-79.607424 20.93555,79.607424 h 17.95703 L 990.37118,48.271484 H 973.08601 L 952.05476,128.83984 931.88874,48.271484 H 912.4903 L 892.42195,129.31836 872.63874,48.271484 Z" />
        <path id="path08" d="m 1001.7539,10.050781 v 19.589844 h 17.5742 V 10.050781 Z m 0,38.701172 V 151.11719 h 17.5742 V 48.751953 Z" />
        <path id="path09" d="m 1078.7031,45.294922 c -13.572,0 -24.743,5.025168 -33.5136,15.076172 -8.7707,10.050995 -13.1563,24.102864 -13.1563,42.156246 0,14.72439 4.0015,27.01606 12.0039,36.875 8.0024,9.79493 18.7259,14.69141 32.1699,14.69141 11.9716,0 21.7982,-3.13628 29.4805,-9.41016 7.6823,-6.33789 12.4837,-16.32487 14.4043,-29.96093 h -16.8047 c -1.6005,7.61826 -4.515,13.63541 -8.7402,18.05273 -4.1613,4.3533 -9.826,6.53125 -16.9961,6.53125 -9.3468,0 -16.1975,-3.52235 -20.5508,-10.56445 -4.3533,-7.0421 -6.5293,-15.71636 -6.5293,-26.02344 0,-10.243058 1.5365,-18.853951 4.6094,-25.832031 4.7374,-10.755209 12.6117,-16.132813 23.623,-16.132813 8.0664,0 13.9232,2.112629 17.5723,6.337891 3.6491,4.161244 5.9874,9.412116 7.0117,15.75 h 16.8047 c -1.4724,-13.764106 -5.8581,-23.463977 -13.1563,-29.097656 -7.2341,-5.63368 -16.6449,-8.449219 -28.2324,-8.449219 z" />
        <path id="path10" d="M 1133.9922,10.050781 V 151.11719 h 16.6133 v -38.60352 l 14.5,-13.251951 32.0742,51.855471 h 22.0859 l -41.5801,-64.337893 39.3711,-38.507813 h -22.0859 l -44.3652,43.69336 V 10.050781 Z" />
        <path id="path12" d="m 54.9375,204.48438 v 6.35156 h 29.970703 v -6.35156 z m 0,12.70117 v 6.34961 h 29.970703 v -6.34961 z" />
        <path id="path13" d="m 99.445312,186.62109 v 6.94532 h 8.425778 v -6.94532 z m 0,11.69141 v 30.68359 h 8.425778 V 198.3125 Z" />
        <path id="path14" d="m 130.89648,197.48242 c -3.56133,0 -7.239,1.66085 -9.375,5.10352 h -0.17968 v -4.27344 h -8.01172 v 30.68359 h 8.42773 v -16.08398 c 0,-6.232 1.95997,-8.7832 6.5293,-8.7832 3.916,0 5.39844,2.49177 5.39844,7.53711 v 17.33007 h 8.42773 v -18.87304 c 0,-7.596 -2.25546,-12.64063 -11.2168,-12.64063 z" />
        <path id="path15" d="m 168.81641,186.62109 v 15.43164 h -0.0586 c -1.95866,-3.02666 -5.52,-4.57031 -9.13867,-4.57031 -9.02133,0 -13.5918,7.65497 -13.5918,15.9043 0,8.48667 4.5122,16.43945 13.76954,16.43945 3.91733,0 7.35773,-1.42343 9.3164,-4.74609 h 0.11914 v 3.91601 h 8.01172 v -42.375 z m -6.94336,17.21094 c 5.46,0 7.24023,4.74842 7.24023,9.73242 0,5.04534 -1.66157,9.91016 -7.24023,9.91016 -5.22267,0 -7.41797,-5.04294 -7.41797,-9.84961 0,-5.044 1.89797,-9.79297 7.41797,-9.79297 z" />
        <path id="path16" d="m 196.58789,197.48242 c -9.31733,0 -15.66601,7.00117 -15.66601,16.20117 0,9.49467 5.99268,16.14258 15.66601,16.14258 6.944,0 11.98862,-3.08484 14.36328,-10.32617 h -7.41992 c -0.53333,1.9 -3.26382,3.97461 -6.64648,3.97461 -4.68934,0 -7.29978,-2.4321 -7.53711,-7.77344 h 22.13672 c 0.59466,-9.436 -4.45116,-18.21875 -14.89649,-18.21875 z m -0.23828,6.34961 c 4.096,0 5.93503,2.25596 6.70703,6.5293 h -13.70898 c 0.11866,-2.37334 1.66062,-6.5293 7.00195,-6.5293 z" />
        <path id="path17" d="m 232.55078,197.48242 c -3.79867,0 -7.12196,1.48405 -9.14062,4.74805 h -0.11914 v -3.91797 h -8.01172 v 41.48438 h 8.42773 v -14.59961 h 0.11914 c 2.01734,3.02666 5.51922,4.6289 9.19922,4.6289 8.96133,0 13.4707,-7.65637 13.4707,-15.8457 0,-8.724 -4.33198,-16.49805 -13.94531,-16.49805 z m -1.83984,6.34961 c 5.4,0 7.35742,5.04544 7.35742,9.91211 0,4.98533 -1.77883,9.73047 -7.29883,9.73047 -5.45867,0 -7.35937,-4.74514 -7.35937,-9.73047 0,-4.98533 1.78211,-9.91211 7.30078,-9.91211 z" />
        <path id="path18" d="m 264.53516,197.48242 c -9.31734,0 -15.66797,7.00117 -15.66797,16.20117 0,9.49467 5.99463,16.14258 15.66797,16.14258 6.944,0 11.98666,-3.08484 14.36132,-10.32617 h -7.41796 c -0.53334,1.9 -3.26382,3.97461 -6.64649,3.97461 -4.68933,0 -7.29977,-2.4321 -7.53711,-7.77344 h 22.13477 c 0.59466,-9.436 -4.4492,-18.21875 -14.89453,-18.21875 z m -0.23828,6.34961 c 4.09599,0 5.93503,2.25596 6.70703,6.5293 h -13.70899 c 0.11867,-2.37334 1.66062,-6.5293 7.00196,-6.5293 z" />
        <path id="path19" d="m 300.79297,197.48242 c -3.56133,0 -7.24095,1.66085 -9.37695,5.10352 h -0.17774 v -4.27344 h -8.01172 v 30.68359 h 8.42774 v -16.08398 c 0,-6.232 1.95801,-8.7832 6.52734,-8.7832 3.916,0 5.40039,2.49177 5.40039,7.53711 v 17.33007 h 8.42774 v -18.87304 c 0,-7.596 -2.25547,-12.64063 -11.2168,-12.64063 z" />
        <path id="path20" d="m 338.71289,186.62109 v 15.43164 h -0.0606 c -1.95866,-3.02666 -5.52,-4.57031 -9.13867,-4.57031 -9.02133,0 -13.58984,7.65497 -13.58984,15.9043 0,8.48667 4.51024,16.43945 13.76758,16.43945 3.91733,0 7.35969,-1.42343 9.31836,-4.74609 h 0.11718 v 3.91601 h 8.01367 v -42.375 z m -6.94336,17.21094 c 5.46,0 7.24024,4.74842 7.24024,9.73242 0,5.04534 -1.66157,9.91016 -7.24024,9.91016 -5.22267,0 -7.41992,-5.04294 -7.41992,-9.84961 0,-5.044 1.89992,-9.79297 7.41992,-9.79297 z" />
        <path id="path21" d="m 366.48438,197.48242 c -9.31734,0 -15.66797,7.00117 -15.66797,16.20117 0,9.49467 5.99463,16.14258 15.66797,16.14258 6.94399,0 11.98666,-3.08484 14.36132,-10.32617 h -7.41797 c -0.53333,1.9 -3.26381,3.97461 -6.64648,3.97461 -4.68933,0 -7.29978,-2.4321 -7.53711,-7.77344 h 22.13477 c 0.59466,-9.436 -4.4492,-18.21875 -14.89453,-18.21875 z m -0.23829,6.34961 c 4.096,0 5.93504,2.25596 6.70703,6.5293 h -13.70898 c 0.11867,-2.37334 1.66062,-6.5293 7.00195,-6.5293 z" />
        <path id="path22" d="m 402.74219,197.48242 c -3.56134,0 -7.24096,1.66085 -9.37696,5.10352 h -0.17773 v -4.27344 h -8.01172 v 30.68359 h 8.42774 v -16.08398 c 0,-6.232 1.95801,-8.7832 6.52734,-8.7832 3.916,0 5.40039,2.49177 5.40039,7.53711 v 17.33007 h 8.42773 v -18.87304 c 0,-7.596 -2.25546,-12.64063 -11.21679,-12.64063 z" />
        <path id="path23" d="m 421.43359,189.11523 v 9.19727 h -5.10351 v 5.63867 h 5.10351 v 18.09961 c 0,6.11333 4.50983,7.30078 9.67383,7.30078 1.66134,0 3.50178,-0.0595 4.92578,-0.29687 v -6.58789 c -0.89066,0.17733 -1.72066,0.23632 -2.61132,0.23632 -2.848,0 -3.56055,-0.70926 -3.56055,-3.55859 v -15.19336 h 6.17187 v -5.63867 h -6.17187 v -9.19727 z" />
        <path id="path24" d="m 439.11719,186.62109 v 42.375 h 8.42578 v -42.375 z" />
        <path id="path25" d="m 449.44141,198.3125 10.80078,28.7832 c 0.94933,2.432 0.002,5.46048 -2.90625,5.75782 -1.66134,0.0587 -3.32312,-0.17883 -4.92578,-0.29883 V 239.5 c 1.72133,0.17867 3.44211,0.29688 5.16211,0.29688 5.816,0 8.72445,-2.0167 10.56445,-6.94336 l 12.81836,-34.54102 h -8.72461 l -6.70508,21.00977 h -0.11914 l -6.94336,-21.00977 z" />
        <path id="path26" d="m 512.82227,197.48242 c -9.61467,0 -15.84571,6.40917 -15.84571,16.20117 0,9.73334 6.23104,16.14258 15.84571,16.14258 9.67333,0 15.90429,-6.40924 15.90429,-16.14258 0,-9.792 -6.23096,-16.20117 -15.90429,-16.20117 z m 0,6.35156 c 5.756,0 7.47656,4.92428 7.47656,9.84961 0,4.86667 -1.72056,9.79297 -7.47656,9.79297 -5.69734,0 -7.41797,-4.9263 -7.41797,-9.79297 0,-4.92533 1.72063,-9.84961 7.41797,-9.84961 z" />
        <path id="path27" d="m 549.73242,197.48242 c -4.09466,0 -8.2503,2.67001 -9.79297,6.52735 h -0.11718 v -5.69727 h -8.01172 v 30.68359 h 8.42773 v -13.82812 c 0,-5.40133 2.13464,-9.85156 8.30664,-9.85156 1.00934,0 2.25535,0.1182 3.02735,0.29687 v -7.83398 c -0.53467,-0.17867 -1.24651,-0.29688 -1.83985,-0.29688 z" />
        <path id="path28" d="m 565.93359,197.48242 c -8.60533,0 -13.17578,7.24003 -13.17578,15.19336 0,8.42667 3.91657,15.42969 13.11524,15.42969 3.67866,0 7.35922,-1.54271 9.19922,-4.74805 h 0.11718 v 4.03516 c 0.0587,4.392 -2.07567,7.59765 -6.76367,7.59765 -2.968,0 -5.51901,-1.06951 -6.29101,-4.21484 h -8.36915 c 0.416,7.004 7.47792,9.85156 13.53126,9.85156 14.12399,0 15.90624,-8.54584 15.90624,-13.58984 V 198.3125 h -8.01367 v 4.0957 h -0.11718 c -2.01867,-3.56 -5.10401,-4.92578 -9.13868,-4.92578 z m 2.07618,6.34961 c 5.46,0 7.17968,4.45217 7.17968,9.4375 0,4.39067 -2.37168,8.48633 -7.17968,8.48633 -5.16267,0 -6.82422,-4.80855 -6.82422,-9.19922 0,-4.56933 2.07755,-8.72461 6.82422,-8.72461 z" />
        <path id="path29" d="m 601.65625,197.48242 c -6.884,0 -13.94526,2.37425 -14.41992,10.26758 h 8.42578 c 0.296,-3.324 2.37279,-4.62891 5.57812,-4.62891 2.96667,0 5.46094,0.53297 5.46094,4.1543 0,3.44133 -4.8067,3.26316 -9.9707,4.03516 -5.22267,0.712 -10.44531,2.37374 -10.44531,9.3164 0,6.292 4.62931,9.19922 10.44531,9.19922 3.73867,0 7.6555,-1.00949 10.32617,-3.79883 0.06,1.008 0.29642,2.01747 0.59375,2.9668 h 8.54688 c -0.772,-1.24533 -1.07032,-4.03427 -1.07032,-6.82226 v -15.9668 c 0,-7.35867 -7.35737,-8.72266 -13.4707,-8.72266 z m 5.04492,16.49805 v 3.14453 c 0,1.84 -0.23817,7.0625 -6.82617,7.0625 -2.72933,0 -5.16211,-0.77068 -5.16211,-3.91602 0,-3.08533 2.37433,-3.97705 4.98633,-4.51171 2.61067,-0.47467 5.57795,-0.53263 7.00195,-1.7793 z" />
        <path id="path30" d="m 638.0332,197.48242 c -3.56133,0 -7.24095,1.66085 -9.37695,5.10352 h -0.17773 v -4.27344 h -8.01172 v 30.68359 h 8.42773 v -16.08398 c 0,-6.232 1.95801,-8.7832 6.52735,-8.7832 3.91599,0 5.40039,2.49177 5.40039,7.53711 v 17.33007 H 649.25 v -18.87304 c 0,-7.596 -2.25546,-12.64063 -11.2168,-12.64063 z" />
        <path id="path31" d="m 653.52148,186.62109 v 6.94532 h 8.42579 v -6.94532 z m -0.002,11.69141 v 30.68359 h 8.42578 V 198.3125 Z" />
        <path id="path32" d="m 666.69531,198.3125 v 6.35156 h 14.77539 l -15.96484,17.98047 v 6.35156 h 28.18945 v -6.35156 h -17.08984 l 15.96289,-17.98047 v -6.35156 z" />
        <path id="path33" d="m 711.20117,197.48242 c -9.316,0 -15.66601,7.00117 -15.66601,16.20117 0,9.49467 5.99401,16.14258 15.66601,16.14258 6.944,0 11.98995,-3.08484 14.36328,-10.32617 h -7.41992 c -0.53333,1.9 -3.26382,3.97461 -6.64648,3.97461 -4.688,0 -7.29916,-2.4321 -7.53516,-7.77344 h 22.13477 c 0.59333,-9.436 -4.45116,-18.21875 -14.89649,-18.21875 z m -0.23633,6.34961 c 4.09467,0 5.93442,2.25596 6.70508,6.5293 h -13.70703 c 0.11867,-2.37334 1.66062,-6.5293 7.00195,-6.5293 z" />
        <path id="path34" d="m 751.37695,186.62109 v 15.43164 h -0.0586 c -1.95867,-3.02666 -5.52001,-4.57031 -9.13867,-4.57031 -9.02134,0 -13.5918,7.65497 -13.5918,15.9043 0,8.48667 4.51087,16.43945 13.76953,16.43945 3.91734,0 7.35774,-1.42343 9.31641,-4.74609 h 0.12109 v 3.91601 h 8.00977 v -42.375 z m -6.94336,17.21094 c 5.46,0 7.24024,4.74842 7.24024,9.73242 0,5.04534 -1.66157,9.91016 -7.24024,9.91016 -5.22266,0 -7.41601,-5.04294 -7.41601,-9.84961 0,-5.044 1.89601,-9.79297 7.41601,-9.79297 z" />
        <path id="path35" d="m 777.84375,186.62305 v 7.83203 h 12.69922 v 34.54101 h 9.31641 v -34.54101 h 12.70117 v -7.83203 z" />
        <path id="path36" d="m 816.23633,186.62109 v 42.37305 h 32.16601 v -7.83203 h -22.84765 v -10.38672 h 20.5332 v -7.23828 h -20.5332 v -9.08203 h 22.37304 v -7.83399 z" />
        <path id="path37" d="m 852.31836,186.62109 v 42.37305 h 18.27734 c 12.93734,0 19.22852,-9.13787 19.22852,-21.42187 0,-14.06534 -8.24985,-20.95118 -19.22852,-20.95118 z m 9.31641,7.83399 h 6.64648 c 9.26,0 12.22656,5.45919 12.22656,14.00586 0,9.37733 -5.16445,12.70117 -10.56445,12.70117 h -8.30859 z" />
        <path id="path38" d="m 923.70703,197.48242 c -9.316,0 -15.66797,7.00117 -15.66797,16.20117 0,9.49467 5.99597,16.14258 15.66797,16.14258 6.944,0 11.988,-3.08484 14.36133,-10.32617 h -7.41797 c -0.53333,1.9 -3.26382,3.97461 -6.64648,3.97461 -4.688,0 -7.30111,-2.4321 -7.53711,-7.77344 h 22.13672 c 0.59333,-9.436 -4.45116,-18.21875 -14.89649,-18.21875 z m -0.23633,6.34961 c 4.09467,0 5.93441,2.25596 6.70508,6.5293 H 916.4668 c 0.11866,-2.37334 1.66257,-6.5293 7.0039,-6.5293 z" />
        <path id="path39" d="m 938.30469,198.3125 10.5039,30.68359 h 9.37696 l 10.38476,-30.68359 h -8.36719 l -6.46874,20.94922 h -0.11915 l -6.46875,-20.94922 z" />
        <path id="path40" d="m 983.87891,197.48242 c -9.316,0 -15.66602,7.00117 -15.66602,16.20117 0,9.49467 5.99402,16.14258 15.66602,16.14258 6.944,0 11.98994,-3.08484 14.36328,-10.32617 h -7.41797 c -0.53333,1.9 -3.26577,3.97461 -6.64844,3.97461 -4.688,0 -7.29916,-2.4321 -7.53516,-7.77344 h 22.13477 c 0.59467,-9.436 -4.45115,-18.21875 -14.89648,-18.21875 z m -0.23633,6.34961 c 4.09466,0 5.93636,2.25596 6.70703,6.5293 h -13.70899 c 0.11867,-2.37334 1.66062,-6.5293 7.00196,-6.5293 z" />
        <path id="path41" d="m 1020.1387,197.48242 c -3.56,0 -7.239,1.66085 -9.375,5.10352 h -0.1797 v -4.27344 h -8.0117 v 30.68359 H 1011 v -16.08398 c 0,-6.232 1.9586,-8.7832 6.5293,-8.7832 3.916,0 5.4004,2.49177 5.4004,7.53711 v 17.33007 h 8.4277 v -18.87304 c 0,-7.596 -2.2574,-12.64063 -11.2187,-12.64063 z" />
        <path id="path42" d="m 1038.8301,189.11523 v 9.19727 h -5.1035 v 5.63867 h 5.1035 v 18.09961 c 0,6.11333 4.5098,7.30078 9.6738,7.30078 1.6627,0 3.5031,-0.0595 4.9258,-0.29687 v -6.58789 c -0.8893,0.17733 -1.7207,0.23632 -2.6113,0.23632 -2.8494,0 -3.5606,-0.70926 -3.5606,-3.55859 v -15.19336 h 6.1719 v -5.63867 h -6.1719 v -9.19727 z" />
    </g>
</svg>
